<?xml version="1.0" standalone="no"?>
<!DOCTYPE svg PUBLIC "-//W3C//DTD SVG 20010904//EN"
 "http://www.w3.org/TR/2001/REC-SVG-20010904/DTD/svg10.dtd">
<svg version="1.0" xmlns="http://www.w3.org/2000/svg"
 width="1024.000000pt" height="1024.000000pt" viewBox="0 0 1024.000000 1024.000000"
 preserveAspectRatio="xMidYMid meet">
<metadata>
Created by potrace 1.14, written by Peter Selinger 2001-2017
</metadata>
<g transform="translate(0.000000,1024.000000) scale(0.100000,-0.100000)"
fill="#000000" stroke="none">
<path d="M1755 10229 c-27 -4 -72 -11 -99 -14 -58 -8 -62 -9 -146 -30 -36 -9
-81 -20 -100 -25 -144 -37 -384 -151 -547 -262 -339 -230 -588 -547 -738 -938
-35 -93 -90 -296 -100 -375 -4 -27 -11 -77 -15 -110 -11 -76 -7 -6718 4 -6765
4 -19 9 -44 11 -55 41 -223 88 -372 173 -545 254 -522 734 -912 1292 -1049
262 -64 -16 -60 3645 -57 1837 1 3358 5 3380 9 22 4 67 12 100 18 230 40 484
135 675 253 57 35 123 79 130 86 3 3 32 25 65 49 141 104 357 347 466 523 140
226 239 509 275 788 11 82 12 6680 1 6775 -4 39 -10 77 -12 85 -2 8 -7 31 -10
50 -24 149 -111 396 -193 549 -40 76 -155 258 -171 271 -3 3 -32 37 -63 75
-50 63 -200 213 -254 255 -246 193 -443 295 -729 379 -38 11 -85 23 -104 26
-19 3 -37 7 -40 9 -3 2 -31 7 -61 10 -30 4 -82 11 -115 16 -76 11 -6652 11
-6720 -1z"/>
</g>
</svg>
